<svg width="1440" height="1000" viewBox="0 0 1440 1000" fill="none" xmlns="http://www.w3.org/2000/svg">
<rect width="1440" height="1000" fill="#FDE9CC"/>
<path d="M330.299 864.996C329.956 864.996 329.612 864.905 329.304 864.727L162.578 766.649C162.105 766.373 161.772 765.91 161.657 765.374C161.541 764.838 161.653 764.282 161.968 763.833L296.253 573.005C296.877 572.118 298.099 571.905 298.985 572.528C299.871 573.152 300.085 574.374 299.462 575.26L166.405 764.349L328.514 859.71L333.778 762.287C333.838 761.205 334.748 760.385 335.841 760.434C336.923 760.494 337.75 761.418 337.694 762.497L332.254 863.139C332.216 863.822 331.827 864.439 331.221 864.761C330.934 864.918 330.615 864.995 330.297 864.995L330.299 864.996ZM337.329 734.98C337.294 734.98 337.258 734.98 337.22 734.976C336.138 734.917 335.311 733.992 335.367 732.913L347.584 506.89L316.394 551.213C315.77 552.099 314.548 552.313 313.662 551.689C312.775 551.066 312.562 549.843 313.185 548.957L348.309 499.049C348.814 498.334 349.728 498.036 350.555 498.323C351.381 498.611 351.917 499.409 351.872 500.281L339.283 733.128C339.227 734.172 338.362 734.981 337.329 734.981L337.329 734.98Z" fill="black"/>
<path d="M487.215 766.919H377.257C376.175 766.919 375.296 766.04 375.296 764.958C375.296 763.875 376.175 762.996 377.257 762.996H484.122L407.751 600.709L189.233 683.595C188.218 683.98 187.086 683.469 186.704 682.456C186.319 681.444 186.831 680.309 187.843 679.927L408.064 596.398C409.02 596.037 410.096 596.468 410.533 597.396L488.992 764.122C489.279 764.728 489.233 765.443 488.873 766.01C488.515 766.577 487.892 766.921 487.219 766.921L487.215 766.919ZM347.838 766.919H163.573C162.918 766.919 162.305 766.59 161.94 766.047L122.711 707.203C122.378 706.706 122.294 706.086 122.476 705.515C122.659 704.948 123.089 704.492 123.65 704.279L160.336 690.362C161.352 689.977 162.483 690.488 162.865 691.501C163.25 692.513 162.739 693.648 161.727 694.03L127.341 707.07L164.623 762.996H347.839C348.921 762.996 349.8 763.875 349.8 764.957C349.797 766.039 348.918 766.919 347.835 766.919L347.838 766.919Z" fill="black"/>
<path d="M124.343 708.08C123.881 708.08 123.422 707.915 123.058 707.6C122.511 707.131 122.27 706.395 122.427 705.691L161.656 529.155C161.772 528.63 162.101 528.175 162.564 527.898C163.026 527.621 163.583 527.548 164.098 527.691L253.029 552.592C254.073 552.883 254.682 553.965 254.388 555.009C254.097 556.052 253.012 556.662 251.971 556.368L165.033 532.025L127.041 702.983L229.655 664.063C230.667 663.677 231.802 664.189 232.184 665.201C232.569 666.213 232.058 667.348 231.046 667.73L125.042 707.947C124.814 708.031 124.579 708.073 124.345 708.073L124.343 708.08ZM257.866 657.436C257.074 657.436 256.328 656.953 256.03 656.172C255.645 655.159 256.157 654.025 257.169 653.643L402.483 598.522L280.312 564.312C279.268 564.022 278.658 562.939 278.953 561.896C279.243 560.852 280.326 560.242 281.37 560.537L409.288 596.354C410.104 596.582 410.682 597.307 410.721 598.154C410.759 599.002 410.248 599.776 409.456 600.077L258.565 657.313C258.33 657.394 258.092 657.436 257.865 657.436L257.866 657.436Z" fill="black"/>
<path d="M477.406 874.806C465.507 874.806 455.831 865.128 455.831 853.23C455.831 841.332 465.508 831.655 477.406 831.655C489.304 831.655 498.982 841.332 498.982 853.23C498.982 865.128 489.304 874.806 477.406 874.806ZM477.406 835.577C467.673 835.577 459.753 843.496 459.753 853.23C459.753 862.965 467.672 870.884 477.406 870.884C487.14 870.884 495.06 862.965 495.06 853.23C495.06 843.496 487.14 835.577 477.406 835.577Z" fill="black"/>
<path d="M242.031 502.125C230.132 502.125 220.456 492.447 220.456 480.549C220.456 468.651 230.133 458.973 242.031 458.973C253.929 458.973 263.607 468.651 263.607 480.549C263.607 492.447 253.929 502.125 242.031 502.125ZM242.031 462.895C232.298 462.895 224.378 470.815 224.378 480.549C224.378 490.283 232.297 498.203 242.031 498.203C251.765 498.203 259.685 490.283 259.685 480.549C259.685 470.815 251.765 462.895 242.031 462.895Z" fill="black"/>
<path d="M428.367 737.5C427.849 737.5 427.348 737.282 426.973 736.922C426.609 736.557 426.406 736.05 426.406 735.538C426.406 735.016 426.612 734.508 426.973 734.144C427.709 733.419 429.022 733.419 429.747 734.144C430.119 734.515 430.325 735.016 430.325 735.538C430.325 736.05 430.119 736.557 429.747 736.922C429.387 737.282 428.886 737.5 428.367 737.5V737.5Z" fill="black"/>
<path d="M398.948 737.5C398.429 737.5 397.929 737.282 397.564 736.922C397.193 736.557 396.986 736.05 396.986 735.538C396.986 735.016 397.193 734.508 397.564 734.144C398.279 733.419 399.603 733.419 400.331 734.144C400.703 734.515 400.909 735.016 400.909 735.538C400.909 736.05 400.703 736.557 400.342 736.922C399.967 737.282 399.466 737.5 398.948 737.5H398.948Z" fill="black"/>
<path d="M369.528 737.5C369.009 737.5 368.509 737.282 368.134 736.922C367.77 736.557 367.566 736.05 367.566 735.538C367.566 735.016 367.773 734.519 368.134 734.144C368.869 733.419 370.183 733.419 370.908 734.144C371.279 734.515 371.486 735.016 371.486 735.538C371.486 736.05 371.279 736.557 370.918 736.922C370.547 737.282 370.046 737.5 369.528 737.5H369.528Z" fill="black"/>
<path d="M369.528 708.08C369.016 708.08 368.509 707.863 368.134 707.502C367.77 707.138 367.566 706.63 367.566 706.118C367.566 705.597 367.773 705.099 368.134 704.724C368.869 703.999 370.183 703.999 370.908 704.724C371.279 705.096 371.486 705.597 371.486 706.118C371.486 706.63 371.279 707.138 370.908 707.502C370.547 707.863 370.039 708.08 369.528 708.08V708.08Z" fill="black"/>
<path d="M369.528 678.66C369.01 678.66 368.509 678.443 368.144 678.082C367.773 677.718 367.566 677.21 367.566 676.699C367.566 676.177 367.773 675.68 368.134 675.305C368.869 674.58 370.183 674.58 370.908 675.305C371.279 675.676 371.486 676.177 371.486 676.699C371.486 677.21 371.279 677.718 370.918 678.082C370.547 678.443 370.046 678.66 369.528 678.66Z" fill="black"/>
<path d="M104.733 843.423H124.348V863.037H104.733V843.423Z" fill="white"/>
<path d="M134.153 843.423H153.767V863.037H134.153V843.423Z" fill="black"/>
<path d="M163.573 843.423H183.187V863.037H163.573V843.423Z" fill="black"/>
<path d="M192.992 843.423H212.607V863.037H192.992V843.423Z" fill="black"/>
</svg>
